<svg xmlns="http://www.w3.org/2000/svg" xmlns:xlink="http://www.w3.org/1999/xlink" id="Layer_1" width="40" height="40" x="0" y="0" enable-background="new 0 0 40 40" version="1.1" viewBox="0 0 40 40" xml:space="preserve"><path fill="#F05B41" d="M38,0H2C0.9,0,0,0.9,0,2v36c0,1.1,0.9,2,2,2h36c1.1,0,2-0.9,2-2V2C40,0.9,39.1,0,38,0z M38,36	c0,1.1-0.9,2-2,2H4c-1.1,0-2-0.9-2-2V4c0-1.1,0.9-2,2-2h32c1.1,0,2,0.9,2,2V36z"/><rect width="9" height="7" x="6" y="6" fill="#F05B41"/><rect width="9" height="7" x="25" y="6" fill="#F05B41"/><rect width="8" height="7" x="16" y="6" fill="#F05B41"/><rect width="9" height="7" x="6" y="27" fill="#F05B41"/><rect width="9" height="7" x="25" y="27" fill="#F05B41"/><rect width="8" height="7" x="16" y="27" fill="#F05B41"/><rect width="1" height="14" x="15" y="13" fill="#F05B41"/><rect width="1" height="14" x="24" y="13" fill="#F05B41"/><rect width="28" height="2" x="6" y="19" fill="#F05B41"/><rect width="28" height="2" x="6" y="15" fill="#F05B41"/><rect width="28" height="2" x="6" y="23" fill="#F05B41"/></svg>